HIERARCHY
ROOT Hips
{
  OFFSET -31.5692 30.0904 122.763
  CHANNELS 6 Xposition Yposition Zposition Zrotation Xrotation Yrotation
  JOINT LeftUpLeg
  {
    OFFSET 8.64259 1.95398 -2.38835
    CHANNELS 3 Zrotation Xrotation Yrotation
    JOINT LeftLeg
    {
      OFFSET 43.7702 0 0
      CHANNELS 3 Zrotation Xrotation Yrotation
      JOINT LeftFoot
      {
        OFFSET 40.6238 0 0
        CHANNELS 3 Zrotation Xrotation Yrotation
        JOINT LeftToeBase
        {
          OFFSET 12.7242 0 0
          CHANNELS 3 Zrotation Xrotation Yrotation
          End Site
          {
            OFFSET 0 0 0
          }
        }
      }
    }
  }
  JOINT RightUpLeg
  {
    OFFSET -8.2249 1.95398 -2.59336
    CHANNELS 3 Zrotation Xrotation Yrotation
    JOINT RightLeg
    {
      OFFSET 43.5653 0 0
      CHANNELS 3 Zrotation Xrotation Yrotation
      JOINT RightFoot
      {
        OFFSET 40.6238 0 0
        CHANNELS 3 Zrotation Xrotation Yrotation
        JOINT RightToeBase
        {
          OFFSET 12.7242 0 0
          CHANNELS 3 Zrotation Xrotation Yrotation
          End Site
          {
            OFFSET 0 0 0
          }
        }
      }
    }
  }
  JOINT Spine
  {
    OFFSET 0.165834 0.87714 6.61349
    CHANNELS 3 Zrotation Xrotation Yrotation
    JOINT Spine1
    {
      OFFSET 7.38963 1.71661e-005 0
      CHANNELS 3 Zrotation Xrotation Yrotation
      JOINT Spine2
      {
        OFFSET 11.9445 1.14441e-005 0
        CHANNELS 3 Zrotation Xrotation Yrotation
        JOINT Spine3
        {
          OFFSET 14.7254 4.19617e-005 0
          CHANNELS 3 Zrotation Xrotation Yrotation
          JOINT Spine4
          {
            OFFSET 10.9679 0 0
            CHANNELS 3 Zrotation Xrotation Yrotation
            JOINT RightShoulder
            {
              OFFSET 2.46616 -1.6653 3.69651
              CHANNELS 3 Zrotation Xrotation Yrotation
              JOINT RightArm
              {
                OFFSET 13.0012 0 0
                CHANNELS 3 Zrotation Xrotation Yrotation
                JOINT RightForeArm
                {
                  OFFSET 28.7848 1.62311e-005 0
                  CHANNELS 3 Zrotation Xrotation Yrotation
                  JOINT RightHand
                  {
                    OFFSET 26.5688 1.62095e-005 0
                    CHANNELS 3 Zrotation Xrotation Yrotation
                    End Site
                    {
                      OFFSET 0 0 0
                    }
                  }
                }
              }
            }
            JOINT LeftShoulder
            {
              OFFSET 2.38034 -1.29275 -3.7523
              CHANNELS 3 Zrotation Xrotation Yrotation
              JOINT LeftArm
              {
                OFFSET 16.3182 6.07031e-005 0
                CHANNELS 3 Zrotation Xrotation Yrotation
                JOINT LeftForeArm
                {
                  OFFSET 27.0901 0 0
                  CHANNELS 3 Zrotation Xrotation Yrotation
                  JOINT LeftHand
                  {
                    OFFSET 24.5451 1.51738e-005 0
                    CHANNELS 3 Zrotation Xrotation Yrotation
                    End Site
                    {
                      OFFSET 0 0 0
                    }
                  }
                }
              }
            }
            JOINT Neck
            {
              OFFSET 5.0226 -0.0266342 0
              CHANNELS 3 Zrotation Xrotation Yrotation
              JOINT Head
              {
                OFFSET 6.69364 2.86102e-005 0
                CHANNELS 3 Zrotation Xrotation Yrotation
                End Site
                {
                  OFFSET 0 0 0
                }
              }
            }
          }
        }
      }
    }
  }
}
MOTION
Frames:	18
Frame Time:	0.0416667
112.072 27.163 119.911 -24.1557 -13.7629 -99.6863 -123.675 59.9382 88.8633 -112.773 2.39059 3.0351 67.9459 0.888143 5.15121 1.85616 -15.7692 2.65554 136.714 15.5468 58.307 -43.9198 -23.5058 12.5981 48.2986 6.55589 4.81636 31.5664 -1.76557 2.77216 -1.41703 8.9242 -87.4201 9.03591 -1.67507 5.22488 -2.64473 -1.4438 5.29325 -25.1227 -3.16644 4.48236 -5.11003 -3.16644 4.48234 92.9738 -14.1524 -107.044 31.8184 34.0544 -31.9889 -70.268 2.24816 -107.138 -39.1583 -3.7701 -2.6453 -89.5307 -38.3001 76.6811 -1.23668 -33.807 -38.188 51.1848 19.8144 -78.9355 47.7993 -13.7098 -25.7649 50.5666 -3.33067 -6.3999 -12.1161 0.792375 -0.788121 
111.25 26.4662 119.506 -24.9728 -12.9828 -101.363 -127.405 57.0908 93.3186 -111.425 5.81824 2.20834 67.5758 1.16378 5.33782 1.61394 -16.119 2.94958 135.814 15.1512 56.7533 -43.6922 -12.8345 12.4173 49.6036 5.82369 4.10047 29.9881 -1.04158 2.54795 -1.51585 8.76883 -87.7199 9.35799 -1.99862 4.66591 -2.32008 -1.79156 4.74909 -24.8185 -3.30759 3.85135 -4.8059 -3.30759 3.85133 93.4787 -13.5481 -106.018 29.2445 24.8084 -35.6241 -72.0913 4.47873 -105.464 -34.0256 -3.66732 -2.00885 -87.0253 -27.6274 78.321 -9.79588 -48.7591 -45.1501 50.9613 27.0216 -77.9021 41.8172 -12.6133 -27.815 48.9953 0.66501 -0.292738 -10.8436 0.965711 -2.2631 
110.786 25.9426 118.988 -24.3118 -11.0594 -100.584 -125.512 57.6119 94.9305 -110.681 4.62273 1.64454 66.8647 0.953781 5.59339 1.32647 -15.6807 2.05564 137.413 14.4449 58.0277 -43.7849 -12.057 12.4286 51.0453 5.25272 3.53759 28.4154 -0.475775 3.16922 -1.45396 8.44174 -88.3465 10.0104 -2.14585 3.4585 -1.66369 -1.99164 3.54945 -24.1889 -3.08572 2.65431 -4.17626 -3.08571 2.65431 93.5183 -13.625 -105.873 23.8871 16.8181 -39.0025 -70.9388 2.29336 -101.79 -33.999 -3.08946 -4.1466 -83.7505 -10.8914 80.4974 -20.8945 -55.642 -59.2505 48.1551 33.9827 -67.7071 32.4906 -11.9564 -35.3895 45.7263 5.31808 4.33147 -9.22935 2.78235 -3.40843 
110.891 26.4162 118.327 -19.0771 -7.80042 -97.8181 -117.755 62.1061 90.36 -110.463 5.10648 0.980913 66.2185 0.988613 5.83269 2.37053 -15.6637 2.9656 141.229 17.4018 64.0415 -46.9343 -7.73841 12.8194 54.2204 3.70765 2.17165 28.3574 -0.651628 4.15872 -1.13734 7.82802 -89.0676 11.2328 -1.82976 2.03771 -0.438617 -1.73834 2.1162 -22.9773 -2.35751 1.39359 -2.96467 -2.35751 1.39359 93.6834 -13.6315 -105.426 19.3936 11.2049 -42.9401 -72.6754 2.49958 -99.8209 -30.9789 -3.04085 -3.77998 -81.9728 0.391628 81.3717 -26.7668 -54.89 -69.6995 45.6104 40.9645 -53.6787 22.9345 -10.657 -45.9471 45.6228 8.4323 8.0077 -9.48621 3.79215 -4.54465 
111.34 27.4662 117.667 -12.5978 -3.50336 -93.4154 -102.686 69.1906 78.9019 -110.565 1.71708 0.455219 64.9931 0.246983 4.39127 1.43884 -16.0972 2.75765 145.669 20.2218 73.2222 -49.4994 0.0770398 13.7101 61.8333 -0.805142 -0.0112068 28.9057 -0.903931 4.2708 -0.637121 7.18805 -89.7852 12.501 -1.16343 0.563478 0.830459 -1.1375 0.614162 -21.7087 -1.27898 0.187737 -1.69607 -1.27899 0.18771 93.5758 -14.7411 -105.169 16.1634 7.38867 -46.1923 -75.5779 4.15772 -98.9753 -25.1483 -2.75772 -3.90545 -80.847 5.74071 83.4094 -29.033 -50.8209 -75.5681 43.8361 43.8176 -46.22 23.2234 -11.9483 -49.6202 46.5707 10.4295 9.68011 -10.5783 4.76789 -5.51763 
110.93 27.7277 117.937 -11.9242 -1.69981 -95.0471 -101.377 66.5337 79.1974 -109.408 1.04323 -0.599771 65.2449 0.477824 3.95391 0.435016 -16.1125 1.88946 145.63 22.2439 73.6525 -51.3684 4.2619 13.6019 68.5427 -5.41193 -1.24182 29.2465 -0.956428 3.79728 -0.609568 7.16721 -89.8138 12.5422 -1.12227 0.502088 0.871661 -1.09907 0.550976 -21.6673 -1.22128 0.141538 -1.65463 -1.22128 0.14153 93.0084 -16.0547 -105.998 12.6233 5.40136 -48.3249 -77.1812 5.15776 -98.2704 -21.0259 -2.52981 -3.93392 -80.4294 7.84848 84.161 -29.4048 -50.9332 -74.7862 40.7819 41.7398 -44.4603 20.247 -9.81209 -47.7624 46.9327 10.9881 9.75509 -10.4413 5.19489 -5.27369 
110.245 27.3114 118.104 -11.4568 -0.297851 -96.1783 -101.425 64.2282 81.1504 -108.338 1.20119 -1.53089 65.4948 0.737918 3.92102 1.28657 -16.4256 3.09176 145.693 22.7748 73.8518 -51.3564 8.42266 14.3836 70.7244 -6.82957 -1.93775 28.8268 -0.816059 3.97205 -0.657791 7.19869 -89.8203 12.4796 -1.22131 0.499441 0.80913 -1.19814 0.552723 -21.7306 -1.31495 0.109245 -1.71791 -1.31495 0.109242 92.7947 -16.9546 -106.103 9.62475 2.02852 -50.3966 -80.2481 6.52229 -97.1062 -19.4956 -2.54777 -3.42636 -79.936 8.86687 86.1252 -31.0714 -51.4159 -73.9609 39.1079 39.7536 -44.5349 21.8584 -10.589 -47.1706 49.5555 11.056 7.57181 -11.305 6.19023 -3.96784 
109.173 26.3529 118.324 -10.9286 0.778243 -96.8493 -103.431 61.6561 85.1258 -106.984 2.77569 -2.56014 65.7744 0.997634 3.20093 6.13012 -15.0922 5.6714 146.006 22.2326 73.706 -50.1137 11.25 15.0874 74.1388 -9.10702 -2.03413 28.3064 -0.666225 4.34268 -0.827219 7.14576 -89.8866 12.5865 -1.5892 0.41187 0.916399 -1.56953 0.481439 -21.6265 -1.63947 -0.084907 -1.61389 -1.63949 -0.0849328 92.1517 -17.3404 -107.51 12.6531 5.44799 -52.5579 -80.1484 14.4743 -99.926 -7.69512 -1.71721 -5.35181 -79.6784 9.07652 87.158 -37.2304 -51.494 -73.1866 41.3174 38.9258 -49.411 23.8138 -11.3095 -46.1815 51.0821 11.6412 6.34374 -11.5639 7.3492 -4.02737 
108.023 26.2415 118.79 -9.22422 2.43779 -97.4639 -108.076 59.0126 90.0256 -104.377 4.54239 -3.94991 63.5821 -1.02929 -1.41643 14.7175 -11.1591 8.15165 147.735 22.7458 74.8986 -48.5516 14.1008 14.6602 79.9828 -13.1613 -1.64111 28.4613 -0.613756 3.75401 -0.849613 7.00191 -89.9763 12.8733 -1.67559 0.249136 1.20341 -1.663 0.322649 -21.3403 -1.67298 -0.266107 -1.32767 -1.67296 -0.266109 90.4103 -19.5506 -110.555 3.58025 -1.78931 -51.5114 -80.3113 10.6545 -96.1237 -16.7126 -2.52323 -1.30411 -79.6986 8.56628 87.2856 -35.5768 -55.1963 -65.0572 43.5822 37.3487 -57.239 25.5572 -11.7132 -44.5628 52.3005 12.6189 6.29808 -12.2369 8.30651 -5.037 
106.436 27.3356 120.147 -7.33788 4.06535 -98.9349 -116.743 54.7694 95.4345 -98.5533 15.5185 -6.79206 61.2428 -1.77176 -3.3812 20.7237 -8.15397 9.59197 149.726 26.767 74.7836 -47.9226 14.5184 13.6466 75.1613 -9.61096 -1.6217 25.9553 0.535011 3.4111 -0.719536 6.90857 -90.0235 13.0584 -1.43954 0.130339 1.3882 -1.43242 0.193585 -21.1532 -1.41216 -0.308413 -1.14052 -1.41215 -0.308425 88.9181 -22.2759 -112.505 -0.848418 -4.59249 -50.6362 -79.1175 13.5238 -95.5616 -16.9888 -2.45949 -1.83678 -80.3868 7.67798 84.4355 -28.854 -59.7774 -53.7094 40.8906 34.7547 -59.8464 29.1296 -12.9454 -42.6495 53.5729 13.1942 6.27989 -12.984 8.70049 -4.15592 
104.322 29.2614 122.776 -5.23111 5.15357 -100.464 -121.599 50.5924 95.0935 -91.2263 21.4236 -9.82545 58.6271 -2.78771 -4.80179 22.8959 -7.56507 11.3054 148.055 38.3075 71.875 -55.0843 11.0368 14.4374 62.411 0.402722 0.844139 22.4909 2.28599 2.5228 -0.318136 7.0044 -90.331 12.8639 -0.790416 -0.569523 1.19308 -0.814703 -0.534186 -21.3421 -0.582704 -0.780731 -1.32941 -0.582709 -0.780751 91.3289 -20.7537 -107.787 -4.27294 -8.97684 -53.0248 -80.3282 12.3431 -93.6582 -15.5126 -2.31411 -2.28544 -80.9384 5.94364 83.0874 -39.8358 -64.4961 -57.9383 45.6185 34.587 -67.5706 29.9113 -13.5262 -43.2496 55.8763 14.7666 8.99718 -14.4264 8.23049 -3.70341 
102.109 31.1561 125.286 -3.38492 6.70291 -100.123 -125.001 48.662 94.6458 -84.788 23.2523 -12.4618 56.1184 -3.93534 -6.33174 25.4294 -6.38155 12.256 144.338 53.1684 72.0888 -68.6323 0.557423 11.8597 60.0324 2.35691 0.880428 18.2658 3.84668 3.67911 -0.0178113 7.13588 -90.8354 12.5975 -0.433726 -1.61778 0.92566 -0.504488 -1.59713 -21.6016 0.0724741 -1.67332 -1.58895 0.0724695 -1.67333 92.0384 -19.4679 -106.769 -9.70118 -12.1197 -53.7586 -80.9506 9.14831 -92.1592 -20.7568 -2.87851 -1.19527 -81.4942 1.46676 82.7984 -42.3535 -67.0894 -58.8759 43.0944 32.7684 -69.8805 30.9095 -13.4284 -41.5416 56.6645 16.8056 12.4454 -14.3682 7.92173 -4.83253 
99.8653 32.0316 127.07 -3.72501 7.82518 -98.3497 -130.13 46.8045 97.9628 -78.4181 26.2947 -14.1313 53.8678 -4.77273 -7.70799 27.7269 -4.92847 12.2552 138.813 65.8245 76.9114 -85.3255 -6.69545 6.20866 63.8541 -0.138487 -0.787598 18.5413 3.88518 3.15649 -0.198261 7.35006 -91.0696 12.1612 -0.900097 -2.03467 0.48909 -0.988767 -1.9931 -22.0337 -0.247157 -2.21104 -2.021 -0.247147 -2.21104 88.0298 -24.2508 -113.389 -13.7199 -10.6344 -50.4791 -81.171 7.63721 -92.7267 -23.1536 -2.68392 -4.31846 -81.5711 -4.6009 84.8421 -24.51 -68.9137 -46.8088 37.4075 32.2064 -69.8856 34.063 -15.3367 -42.3999 58.3817 18.2941 12.1916 -15.1646 9.61125 -7.71193 
97.7549 31.8056 127.717 -6.20988 8.81994 -95.1265 -133.325 44.9118 103.101 -75.2514 26.5289 -14.338 53.1302 -4.93684 -7.84302 27.6177 -4.93796 12.0953 130.608 74.9955 85.9013 -99.9349 -6.07588 1.34392 62.1651 1.10671 -1.00017 15.6332 4.416 5.49759 -0.900393 6.91547 -92.3172 12.9573 -2.89953 -4.29272 1.28299 -3.08548 -4.16118 -21.204 -1.47718 -4.96412 -1.19133 -1.47719 -4.96412 77.3276 -16.85 -141.602 -11.5332 -18.5521 -26.5463 -81.8373 11.4762 -93.8233 -23.0924 -2.82435 -4.24395 -83.8567 -41.2141 87.7738 29.3833 -60.8763 -20.2495 31.9875 27.3319 -68.9803 35.238 -13.2172 -36.4977 27.062 27.1511 57.1354 5.31975 1.89185 -40.6992 
95.6373 31.1634 127.415 -9.94838 8.06532 -92.1152 -134.984 42.6291 107.068 -75.3418 20.3426 -13.581 53.0679 -5.25008 -7.79072 27.9065 -5.87303 14.9915 123.544 78.6313 93.0667 -108.325 -2.31615 -1.12183 60.9723 1.80592 -2.04383 12.2012 5.8531 5.64317 -0.459507 7.3017 -92.6421 12.1897 -2.16134 -5.02084 0.511142 -2.37994 -4.9212 -21.947 -0.555076 -5.437 -1.93433 -0.555082 -5.437 74.6779 -22.9388 -140.939 -13.0127 -17.627 -20.2186 -87.3307 23.1893 -91.6377 -7.56283 -1.63101 -7.2948 -87.2744 -37.2328 80.2126 16.9303 -57.4974 -26.4686 36.9391 27.8801 -73.1125 36.2835 -13.5276 -35.8572 27.0792 24.1977 52.6184 5.41419 -0.0659116 -33.686 
93.8051 30.6066 127.253 -11.6322 8.35488 -91.3025 -134.462 39.6437 108.03 -74.2964 14.6865 -14.2278 55.132 -4.39159 -6.25306 25.2451 -6.44562 12.1939 125.32 74.3009 90.4412 -106.762 -0.87538 -0.245738 65.5391 -1.30845 -4.39019 12.24 5.41242 6.78246 0.702954 7.92791 -92.3161 11.0057 0.326379 -4.63582 -0.673684 0.122267 -4.64565 -23.1487 1.70324 -4.32454 -3.13604 1.70324 -4.32454 82.8937 -27.9956 -121.673 -12.9313 -19.1282 -27.993 -85.1518 28.6869 -91.7613 -13.2645 -1.95975 -4.67691 -84.4535 -15.6475 80.1542 -23.8049 -50.4799 -51.9993 47.365 27.9063 -75.6904 38.1842 -13.3785 -32.9061 49.6878 17.6572 19.9816 -10.9318 5.44607 -8.14402 
92.3803 30.4702 127.839 -12.4246 7.60582 -92.3348 -133.9 36.4339 106.064 -73.7738 7.29142 -15.169 55.4484 -4.70991 -5.80736 24.5392 -7.18943 12.8373 125.582 70.8413 87.8659 -103.284 3.74723 1.23847 68.61 -3.20316 -5.02511 14.3792 4.70772 6.20658 1.05079 7.8315 -91.9835 11.2153 1.16909 -4.06345 -0.461586 0.989265 -4.11089 -22.9603 2.33557 -3.52537 -2.9477 2.33556 -3.5254 81.6693 -29.1195 -123.331 -8.46814 -15.7463 -18.5372 -89.3567 28.7238 -91.6669 -31.3646 -5.30965 4.0864 -83.4051 -14.9633 82.7998 -24.4941 -35.8236 -61.6207 54.6468 30.6472 -74.5473 43.125 -11.7948 -24.7389 48.2734 12.6309 13.294 -10.5315 4.38848 -2.59616 
91.095 28.9211 127.882 -15.0762 6.27994 -91.0231 -134.055 34.3187 108.757 -73.5998 4.53128 -15.0718 55.4232 -4.94863 -4.77036 25.1297 -6.94917 13.1734 132.046 67.0115 77.9903 -102.438 0.926413 1.40458 67.7638 -2.67481 -4.12904 14.7559 4.23313 7.11945 0.978199 7.73491 -91.9061 11.4068 1.05698 -3.90297 -0.26973 0.884308 -3.94562 -22.7705 2.18047 -3.40583 -2.75786 2.1805 -3.40584 83.5857 -27.5508 -120.583 -6.11284 -11.9912 -11.6179 -69.8878 20.7952 -99.9218 -37.2777 -1.59934 -9.55961 -84.3157 -14.5237 80.3495 -19.0607 -29.0728 -60.7935 57.6205 31.0018 -74.3707 43.4585 -10.1855 -20.887 46.3769 10.444 11.2425 -10.4573 3.67464 -1.87797 
